<?xml version="1.0" standalone="no"?><svg xmlns="http://www.w3.org/2000/svg" viewBox="0 0 1440 320"><path fill="#f3f4f5" fill-opacity="1" d="M0,224L26.7,197.3C53.3,171,107,117,160,101.3C213.3,85,267,107,320,133.3C373.3,160,427,192,480,213.3C533.3,235,587,245,640,234.7C693.3,224,747,192,800,154.7C853.3,117,907,75,960,74.7C1013.3,75,1067,117,1120,154.7C1173.3,192,1227,224,1280,245.3C1333.3,267,1387,277,1413,282.7L1440,288L1440,320L1413.3,320C1386.7,320,1333,320,1280,320C1226.7,320,1173,320,1120,320C1066.7,320,1013,320,960,320C906.7,320,853,320,800,320C746.7,320,693,320,640,320C586.7,320,533,320,480,320C426.7,320,373,320,320,320C266.7,320,213,320,160,320C106.7,320,53,320,27,320L0,320Z"></path></svg>